<?xml version="1.0" standalone="no"?><!DOCTYPE svg PUBLIC "-//W3C//DTD SVG 1.1//EN" "http://www.w3.org/Graphics/SVG/1.1/DTD/svg11.dtd"><svg t="1562657497344" class="icon" viewBox="0 0 1024 1024" version="1.1" xmlns="http://www.w3.org/2000/svg" p-id="5155" xmlns:xlink="http://www.w3.org/1999/xlink" width="200" height="200"><defs><style type="text/css"></style></defs><path d="M512 0a512 512 0 1 0 512 512A512 512 0 0 0 512 0z" fill="#FFC200" p-id="5156"></path><path d="M288.892121 295.356768h470.626263a58.543838 58.543838 0 0 1 58.854141 56.888889l-294.063838 161.409292-294.012121-160.995555a58.285253 58.285253 0 0 1 58.595555-57.302626z m-58.543838 118.949495l-0.258586 285.42707a58.440404 58.440404 0 0 0 58.854141 57.768081h470.626263a58.440404 58.440404 0 0 0 58.854141-57.768081V414.254545l-287.133737 153.858586a14.791111 14.791111 0 0 1-14.067071 0z" fill="#FFFFFF" p-id="5157"></path></svg>