<?xml version="1.0" standalone="no"?><!DOCTYPE svg PUBLIC "-//W3C//DTD SVG 1.1//EN" "http://www.w3.org/Graphics/SVG/1.1/DTD/svg11.dtd"><svg t="1562657369781" class="icon" viewBox="0 0 1257 1024" version="1.1" xmlns="http://www.w3.org/2000/svg" p-id="4430" xmlns:xlink="http://www.w3.org/1999/xlink" width="245.5078125" height="200"><defs><style type="text/css"></style></defs><path d="M294.611289 175.580007a61.891539 61.891539 0 0 0-43.735426 105.603324 61.844257 61.844257 0 0 0 105.520582-43.735426 61.714233 61.714233 0 0 0-61.785156-61.867898z m468.087268 333.063004a49.231906 49.231906 0 0 0-34.279118 14.184462 48.309916 48.309916 0 0 0 34.279118 82.577214 49.291008 49.291008 0 0 0 34.279118-14.184463 48.581785 48.581785 0 0 0 14.125361-34.279118 48.238993 48.238993 0 0 0-48.345377-48.357197z m-152.719381-209.516334a61.796976 61.796976 0 1 0-43.735427-105.520582 62.021563 62.021563 0 0 0 0 87.529955 63.227242 63.227242 0 0 0 43.735427 17.978806zM444.919312 756.989311c-55.555812 0-100.295971-11.371211-155.899065-22.293247l-155.520813 78.002724 44.503752-133.865866C66.607873 600.92476 0 500.65243 0 378.524206 0 166.655616 200.390996 0.035461 445.013875 0.035461c218.830798 0 410.51017 133.133002 448.950064 312.519174a368.996976 368.996976 0 0 0-42.848898-2.659587c-211.395775 0-378.252338 157.813967-378.252338 352.152926a334.032275 334.032275 0 0 0 13.664366 93.310124c-13.758929 0.92199-27.612421 1.654854-41.560475 1.654854z m656.315087 155.887244l33.487152 111.111625-122.02184-66.879742a557.555766 557.555766 0 0 1-133.570356 22.38781c-211.691285 0-378.394182-144.693339-378.394182-322.968394 0-177.920443 166.667436-322.980215 378.394182-322.980215 200.012744 0 378.02775 144.977029 378.02775 322.980215 0 100.473277-66.52513 189.291654-155.887245 256.360522z m-96.158836-404.257185a49.243726 49.243726 0 0 0-34.279118 14.184462 48.463581 48.463581 0 0 0-14.184463 34.279118 48.463581 48.463581 0 0 0 82.589034 34.279119 48.558144 48.558144 0 0 0 14.184462-34.279119 48.250814 48.250814 0 0 0-48.345376-48.357197z" fill="#64AE43" p-id="4431"></path></svg>